<svg width="56" height="55" viewBox="0 0 56 55" xmlns="http://www.w3.org/2000/svg">
<path d="M27.577 5.15625C15.2701 5.15625 5.25702 15.18 5.25702 27.5C5.25702 39.82 15.2701 49.8438 27.577 49.8438C39.8839 49.8438 49.897 39.82 49.897 27.5C49.897 15.18 39.8839 5.15625 27.577 5.15625ZM27.577 8.59375C38.0279 8.59375 46.4632 17.038 46.4632 27.5C46.4632 37.962 38.0279 46.4062 27.577 46.4062C17.1261 46.4062 8.69087 37.962 8.69087 27.5C8.69087 17.038 17.1261 8.59375 27.577 8.59375ZM25.8601 17.1875V25.7812H17.2755V29.2188H25.8601V37.8125H29.2939V29.2188H37.8786V25.7812H29.2939V17.1875H25.8601Z"/>
</svg>
