<svg width="55" height="55" viewBox="0 0 55 55" xmlns="http://www.w3.org/2000/svg">
<path d="M27.5 5.15625C15.18 5.15625 5.15625 15.18 5.15625 27.5C5.15625 39.82 15.18 49.8438 27.5 49.8438C39.82 49.8438 49.8438 39.82 49.8438 27.5C49.8438 15.18 39.82 5.15625 27.5 5.15625ZM27.5 8.59375C37.962 8.59375 46.4062 17.038 46.4062 27.5C46.4062 37.962 37.962 46.4062 27.5 46.4062C17.038 46.4062 8.59375 37.962 8.59375 27.5C8.59375 17.038 17.038 8.59375 27.5 8.59375ZM17.1875 25.7812V29.2188H37.8125V25.7812H17.1875Z" />
</svg>
