<svg width="159" height="159" viewBox="0 0 159 159" fill="none" xmlns="http://www.w3.org/2000/svg">
<g clip-path="url(#clip0_7_491)">
<path d="M14.9062 19.875C10.9529 19.875 7.1614 21.4455 4.36594 24.2409C1.57048 27.0364 0 30.8279 0 34.7813L0 124.219C0 128.172 1.57048 131.964 4.36594 134.759C7.1614 137.555 10.9529 139.125 14.9062 139.125H16.8043L35.3079 102.118C35.721 101.293 36.3552 100.6 37.1397 100.116C37.9242 99.6316 38.828 99.375 39.75 99.375H119.25C120.172 99.375 121.076 99.6316 121.86 100.116C122.645 100.6 123.279 101.293 123.692 102.118L142.206 139.125H144.104C148.057 139.125 151.849 137.555 154.644 134.759C157.439 131.964 159.01 128.172 159.01 124.219V34.7813C159.01 32.8229 158.624 30.8837 157.874 29.0746C157.125 27.2654 156.026 25.6217 154.64 24.2374C153.255 22.8531 151.611 21.7553 149.801 21.0068C147.992 20.2583 146.052 19.8737 144.094 19.875H14.9062ZM39.75 69.5625C37.1144 69.5625 34.5868 68.5155 32.7231 66.6519C30.8595 64.7882 29.8125 62.2606 29.8125 59.625C29.8125 56.9894 30.8595 54.4618 32.7231 52.5981C34.5868 50.7345 37.1144 49.6875 39.75 49.6875C42.3856 49.6875 44.9132 50.7345 46.7769 52.5981C48.6405 54.4618 49.6875 56.9894 49.6875 59.625C49.6875 62.2606 48.6405 64.7882 46.7769 66.6519C44.9132 68.5155 42.3856 69.5625 39.75 69.5625ZM119.25 69.5625C116.614 69.5625 114.087 68.5155 112.223 66.6519C110.359 64.7882 109.312 62.2606 109.312 59.625C109.312 56.9894 110.359 54.4618 112.223 52.5981C114.087 50.7345 116.614 49.6875 119.25 49.6875C121.886 49.6875 124.413 50.7345 126.277 52.5981C128.141 54.4618 129.188 56.9894 129.188 59.625C129.188 62.2606 128.141 64.7882 126.277 66.6519C124.413 68.5155 121.886 69.5625 119.25 69.5625ZM59.625 59.625C59.625 56.9894 60.672 54.4618 62.5356 52.5981C64.3993 50.7345 66.9269 49.6875 69.5625 49.6875H89.4375C92.0731 49.6875 94.6007 50.7345 96.4644 52.5981C98.328 54.4618 99.375 56.9894 99.375 59.625C99.375 62.2606 98.328 64.7882 96.4644 66.6519C94.6007 68.5155 92.0731 69.5625 89.4375 69.5625H69.5625C66.9269 69.5625 64.3993 68.5155 62.5356 66.6519C60.672 64.7882 59.625 62.2606 59.625 59.625Z" fill="white"/>
<path d="M131.086 139.125L116.179 109.312H42.8207L27.9144 139.125H131.086Z" fill="#D86720"/>
</g>
<defs>
<clipPath id="clip0_7_491">
<rect width="159" height="159" fill="white"/>
</clipPath>
</defs>
</svg>
