<svg width="81" height="81" viewBox="0 0 81 81" fill="none" xmlns="http://www.w3.org/2000/svg">
<g clip-path="url(#clip0_66_88)">
<path d="M30.0611 30.375H34.0875C34.9312 30.375 35.4375 31.05 35.4375 31.725V59.4C35.4375 60.0733 34.7625 60.75 34.0875 60.75H30.0645C29.3895 60.75 28.7145 60.075 28.7145 59.4V31.725C28.5457 30.8812 29.2174 30.375 30.0611 30.375ZM23.9625 18.5625H18.3937C17.55 18.5625 16.875 19.2426 16.875 19.9243V28.6875H3.7125C2.7 28.6875 1.6875 29.7084 1.6875 30.7294V58.7081C1.6875 59.7307 2.7 60.75 3.7125 60.75H23.9625C24.6375 60.75 25.3125 60.2353 25.3125 59.3848V19.9243C25.3125 19.2426 24.8062 18.5625 23.9625 18.5625ZM16.875 52.7901C16.875 53.4617 16.2 54.1401 15.525 54.1401H11.475C10.8 54.1401 10.125 53.4667 10.125 52.7901V36.7875C10.125 36.1125 10.6312 35.4375 11.475 35.4375H15.525C16.3687 35.4375 16.875 36.1125 16.875 36.7875V52.7901ZM56.025 42.1875C56.8687 42.1875 57.375 43.2 57.375 43.5375V59.4C57.375 60.0733 56.6629 60.75 56.025 60.75H40.1625C39.4453 60.75 38.8125 60.075 38.8125 59.4V55.3736C38.8125 54.5299 39.4875 54.0253 40.1625 54.0253L50.625 54V48.9375H40.1625C39.6039 48.9375 38.8125 48.2625 38.8125 47.5858V31.725C38.8125 30.8812 39.4875 30.375 40.1625 30.375H56.025C56.6983 30.375 57.375 31.05 57.375 31.725V35.775C57.375 36.2812 56.9261 37.125 56.025 37.125H45.5625V42.1875H56.025ZM81 47.25V59.4C81 60.0733 80.325 60.75 79.6483 60.75H62.1C61.7625 60.75 60.75 60.075 60.75 59.4V31.725C60.75 30.8812 61.479 30.375 62.1523 30.375H79.65C79.65 30.375 81 30.375 81 31.725V42.1875H74.25V38.475C74.25 38.475 74.4187 37.125 72.9 37.125H68.85C68.0062 37.125 67.5 37.8 67.5 38.475V52.65C67.5 53.3233 68.3437 54 68.85 54H72.9C73.5733 54 74.25 53.325 74.25 52.65V47.25H81Z" fill="white"/>
<path d="M77.2858 26.9663H79.1437V21.7367H81V20.2163H75.5983V21.7367H77.2858V26.9663ZM74.2736 24.4283H72.3448V24.5886C72.3448 25.2332 72.1828 25.5556 71.3795 25.5556C70.578 25.5556 70.4177 25.2332 70.4177 24.2697V23.1424C70.4177 22.1772 70.4177 21.8566 71.3795 21.8566C72.0225 21.8566 72.3448 22.0169 72.3448 22.6615V22.8218H74.1116V22.6615C74.1116 20.8947 73.4687 20.2501 71.5415 20.2501H71.0572C69.1318 20.2501 68.4872 20.8947 68.4872 22.9804V24.2697C68.4872 26.1968 69.1301 27.0001 71.0572 27.0001H71.7035C73.4703 27.0001 74.1133 26.1951 74.1133 24.5869V24.4266L74.2736 24.4283ZM49.8082 20.2501L48.4599 25.1438L46.9395 20.2501H44.2412V27.0001H46.0957V21.9376L47.444 27.0001H49.3037L50.819 22.1063V27.0001H52.5065V20.2501H49.8082ZM65.3282 20.2501H62.294L60.2707 27.0001H62.294L62.6298 25.8188H64.994L65.3298 27.0001H67.3532L65.3282 20.2501ZM63.9799 24.4688H63.3048L63.9799 21.6001L64.6515 24.4688H63.9799ZM57.24 20.2501H54.0337V27.0001H55.8933V25.1438H57.2417C59.1013 25.1438 59.7729 24.4688 59.7729 22.7813V22.2751C59.7712 20.7563 59.0962 20.2501 57.24 20.2501ZM57.915 22.9501C57.915 23.6251 57.7462 23.7938 57.24 23.7938H55.8917V21.7688H57.0729C57.7479 21.7688 57.9167 21.9376 57.9167 22.4438L57.915 22.9501ZM39.8148 20.2501H38.8496C36.9208 20.2501 36.2795 20.8947 36.2795 22.9804V24.2663C36.2795 26.1968 36.9225 27.0001 38.8496 27.0001H39.8148C41.7437 27.0001 42.3849 26.1951 42.3849 24.2663V22.9804C42.3849 20.8947 41.7437 20.2501 39.8148 20.2501ZM40.4578 23.9457C40.4578 24.9092 40.4578 25.2332 39.4942 25.2332H39.1736C38.21 25.2332 38.21 24.9109 38.21 23.9457V22.9804C38.21 22.0186 38.21 21.6946 39.1736 21.6946H39.4942C40.4578 21.6946 40.4578 22.0169 40.4578 22.9804V23.9457ZM34.4621 24.43H32.5316V24.5903C32.5316 25.2349 32.3713 25.5539 31.568 25.5539C30.7648 25.5539 30.6045 25.2349 30.6045 24.268V23.1441C30.6045 22.1772 30.6045 21.8582 31.568 21.8582C32.211 21.8582 32.5316 22.0186 32.5316 22.6598V22.8218H34.3001V22.6598C34.3001 20.893 33.6572 20.2501 31.73 20.2501H31.2474C29.3186 20.2501 28.6757 20.893 28.6757 22.9804V24.268C28.6757 26.1968 29.3186 27.0001 31.2474 27.0001H31.8903C33.6588 27.0001 34.3018 26.1951 34.3018 24.5886V24.4283H34.4621V24.43Z" fill="#D86720"/>
</g>
<defs>
<clipPath id="clip0_66_88">
<rect width="81" height="81" fill="white"/>
</clipPath>
</defs>
</svg>
