<svg width="378" height="361" viewBox="0 0 378 361" fill="none" xmlns="http://www.w3.org/2000/svg">
<path fill-rule="evenodd" clip-rule="evenodd" d="M92.7475 197.134C92.7475 203.357 91.0476 209.494 87.8206 214.882C84.5936 220.27 79.926 224.765 74.3363 227.877C68.7467 230.988 62.408 232.631 55.954 232.631C49.4712 232.631 43.1324 230.988 37.5428 227.877C31.9532 224.765 27.2855 220.27 24.0585 214.882C20.8315 209.494 19.1316 203.357 19.1316 197.134C19.1316 190.91 20.8315 184.773 24.0585 179.385C27.2855 173.997 31.9532 169.503 37.5428 166.391C43.1324 163.279 49.4712 161.637 55.9251 161.637C62.408 161.637 68.7467 163.279 74.3363 166.391C79.926 169.503 84.5936 173.997 87.8206 179.385C91.0476 184.773 92.7475 190.91 92.7475 197.134Z" fill="#D86720"/>
<path fill-rule="evenodd" clip-rule="evenodd" d="M6.6845 237.414C5.532 237.414 4.40831 237.731 3.39987 238.307C2.39143 238.883 1.55587 239.719 0.979621 240.698C0.403371 241.707 0.0864336 242.859 0.0864336 244.012L0.0288086 270.346C0.0288086 271.499 0.316934 272.651 0.893184 273.66C1.46943 274.639 2.305 275.475 3.31343 276.051C4.32187 276.627 5.44556 276.944 6.59806 276.944H104.532H104.561C105.713 276.944 106.837 276.627 107.845 276.051C108.854 275.475 109.689 274.639 110.265 273.66C110.842 272.651 111.159 271.499 111.159 270.346L111.187 243.983L111.216 244.012C111.216 242.859 110.928 241.707 110.352 240.698C109.776 239.719 108.94 238.883 107.932 238.307C106.923 237.731 105.799 237.414 104.647 237.414H6.6845Z" fill="#D86720"/>
<path fill-rule="evenodd" clip-rule="evenodd" d="M27.8904 192.956H27.9193C26.2481 192.956 24.6058 193.388 23.1652 194.224C21.6958 195.059 20.5144 196.269 19.6789 197.71C18.8433 199.15 18.4111 200.793 18.4111 202.464V324.629C18.4111 326.3 18.8721 327.942 19.7077 329.383C20.5433 330.824 21.7246 332.034 23.1652 332.869C24.6346 333.705 26.2769 334.137 27.9193 334.137H28.0921C29.7633 334.137 31.4056 333.705 32.8462 332.869C34.3156 332.034 35.4969 330.824 36.3325 329.383C37.1681 327.942 37.6003 326.3 37.6003 324.629V202.435V202.464C37.6003 200.793 37.1393 199.15 36.3037 197.71C35.4681 196.269 34.2868 195.059 32.8462 194.224C31.3768 193.388 29.7344 192.956 28.0921 192.956H27.8904Z" fill="#D86720"/>
<path fill-rule="evenodd" clip-rule="evenodd" d="M83.3546 193.792H83.3834C81.7122 193.792 80.0699 194.224 78.6293 195.059C77.1599 195.895 75.9786 197.105 75.143 198.546C74.3074 199.986 73.8752 201.629 73.8752 203.3V325.465C73.8752 327.136 74.3362 328.778 75.1718 330.219C76.0074 331.659 77.1887 332.869 78.6293 333.705C80.0987 334.541 81.7411 334.973 83.3834 334.973H83.5562C85.2274 334.973 86.8697 334.541 88.3103 333.705C89.7797 332.869 90.9611 331.659 91.7966 330.219C92.6322 328.778 93.0644 327.136 93.0644 325.465V203.271V203.3C93.0644 201.629 92.6034 199.986 91.7678 198.546C90.9322 197.105 89.7509 195.895 88.3103 195.059C86.8409 194.224 85.1986 193.792 83.5562 193.792H83.3546Z" fill="#D86720"/>
<path fill-rule="evenodd" clip-rule="evenodd" d="M54.0524 260.319H20.8027V209.494H87.302V260.319H54.0524Z" fill="#D86720"/>
<path d="M55.7233 171.779C56.9622 151.351 62.1485 131.355 70.9363 112.972C82.5189 88.8275 99.9793 68.1978 121.589 53.2153C143.198 38.204 168.178 29.3585 194.052 27.5433C219.897 25.6993 245.742 31.0008 268.936 42.814C292.101 54.6559 311.838 72.6637 326.157 94.9934C340.448 117.323 348.804 143.197 350.389 170.05C351.973 196.874 346.73 223.728 335.147 247.873C323.593 272.017 306.133 292.647 284.523 307.63C262.914 322.612 237.905 331.486 212.06 333.302C209.236 333.503 206.384 333.619 203.56 333.647" stroke="#D86720" stroke-width="52.9134" stroke-linecap="round" stroke-linejoin="round"/>
<path fill-rule="evenodd" clip-rule="evenodd" d="M155.155 193.388L170.829 96.8086L263.577 97.2696L202.148 187.482L247.067 189.153L172.933 286.136L190.739 203.127L189.442 193.82L155.155 193.388Z" fill="#D86720"/>
<path fill-rule="evenodd" clip-rule="evenodd" d="M155.155 193.388L170.829 96.8086L263.577 97.2696L202.148 187.482L247.067 189.153L172.933 286.136L190.739 203.127L189.442 193.82L155.155 193.388Z" stroke="#D86720" stroke-width="30.2362" stroke-linejoin="round"/>
</svg>
