<svg width="97" height="97" viewBox="0 0 97 97" fill="none" xmlns="http://www.w3.org/2000/svg">
<g clip-path="url(#clip0_306_57)">
<circle cx="48.5" cy="48.5" r="48.5" fill="#3C3C3C"/>
<path d="M30.1808 49V42H44.3008V49H30.1808ZM30.1808 28V21H44.3008V28H30.1808ZM30.1808 38V31.2H43.5008V38H30.1808ZM24.1008 21H32.5008V49H24.1008V21ZM57.6914 37H66.6914L74.6914 49H64.4914L57.6914 37ZM49.4914 21H58.2914V49H49.4914V21ZM55.1714 28.4V21H61.2914C64.0381 21 66.2647 21.4133 67.9714 22.24C69.7047 23.0667 70.9714 24.2 71.7714 25.64C72.5981 27.08 73.0114 28.7333 73.0114 30.6C73.0114 32.44 72.5981 34.0933 71.7714 35.56C70.9714 37 69.7047 38.1333 67.9714 38.96C66.2647 39.7867 64.0381 40.2 61.2914 40.2H55.1714V33.6H60.4914C61.2381 33.6 61.8514 33.5067 62.3314 33.32C62.8114 33.1067 63.1714 32.8 63.4114 32.4C63.6781 32 63.8114 31.5333 63.8114 31C63.8114 30.44 63.6781 29.9733 63.4114 29.6C63.1714 29.2 62.8114 28.9067 62.3314 28.72C61.8514 28.5067 61.2381 28.4 60.4914 28.4H55.1714ZM41.2314 69.56L39.7914 81H30.3914L35.5914 51.6L47.9914 66.72L60.3914 51.6L65.5914 81H56.1914L54.7514 69.56L47.9914 78.4L41.2314 69.56Z" fill="#D86720"/>
</g>
<defs>
<clipPath id="clip0_306_57">
<rect width="97" height="97" fill="white"/>
</clipPath>
</defs>
</svg>
