<svg width="500" height="500" viewBox="0 0 500 500" fill="none" xmlns="http://www.w3.org/2000/svg">
<circle cx="250" cy="250" r="250" fill="#3C3C3C"/>
<g clip-path="url(#clip0_1_15)">
<path fill-rule="evenodd" clip-rule="evenodd" d="M141.747 260.134C141.747 266.357 140.048 272.494 136.821 277.882C133.594 283.27 128.926 287.765 123.336 290.877C117.747 293.988 111.408 295.631 104.954 295.631C98.4712 295.631 92.1324 293.988 86.5428 290.877C80.9532 287.765 76.2855 283.27 73.0585 277.882C69.8315 272.494 68.1316 266.357 68.1316 260.134C68.1316 253.91 69.8315 247.773 73.0585 242.385C76.2855 236.997 80.9532 232.503 86.5428 229.391C92.1324 226.279 98.4712 224.637 104.925 224.637C111.408 224.637 117.747 226.279 123.336 229.391C128.926 232.503 133.594 236.997 136.821 242.385C140.048 247.773 141.747 253.91 141.747 260.134Z" fill="#D86720"/>
<path fill-rule="evenodd" clip-rule="evenodd" d="M55.6845 300.414C54.532 300.414 53.4083 300.731 52.3999 301.307C51.3914 301.883 50.5559 302.719 49.9796 303.698C49.4034 304.707 49.0864 305.859 49.0864 307.012L49.0288 333.346C49.0288 334.499 49.3169 335.651 49.8932 336.66C50.4694 337.639 51.305 338.475 52.3134 339.051C53.3219 339.627 54.4456 339.944 55.5981 339.944H153.532H153.561C154.713 339.944 155.837 339.627 156.845 339.051C157.854 338.475 158.689 337.639 159.265 336.66C159.842 335.651 160.159 334.499 160.159 333.346L160.187 306.983L160.216 307.012C160.216 305.859 159.928 304.707 159.352 303.698C158.776 302.719 157.94 301.883 156.932 301.307C155.923 300.731 154.799 300.414 153.647 300.414H55.6845Z" fill="#D86720"/>
<path fill-rule="evenodd" clip-rule="evenodd" d="M76.8904 255.956H76.9193C75.2481 255.956 73.6058 256.388 72.1652 257.224C70.6958 258.059 69.5144 259.269 68.6789 260.71C67.8433 262.15 67.4111 263.793 67.4111 265.464V387.629C67.4111 389.3 67.8721 390.942 68.7077 392.383C69.5433 393.824 70.7246 395.034 72.1652 395.869C73.6346 396.705 75.2769 397.137 76.9193 397.137H77.0921C78.7633 397.137 80.4056 396.705 81.8462 395.869C83.3156 395.034 84.4969 393.824 85.3325 392.383C86.1681 390.942 86.6003 389.3 86.6003 387.629V265.435V265.464C86.6003 263.793 86.1393 262.15 85.3037 260.71C84.4681 259.269 83.2868 258.059 81.8462 257.224C80.3768 256.388 78.7344 255.956 77.0921 255.956H76.8904Z" fill="#D86720"/>
<path fill-rule="evenodd" clip-rule="evenodd" d="M132.355 256.792H132.383C130.712 256.792 129.07 257.224 127.629 258.059C126.16 258.895 124.979 260.105 124.143 261.546C123.307 262.986 122.875 264.629 122.875 266.3V388.465C122.875 390.136 123.336 391.778 124.172 393.219C125.007 394.659 126.189 395.869 127.629 396.705C129.099 397.541 130.741 397.973 132.383 397.973H132.556C134.227 397.973 135.87 397.541 137.31 396.705C138.78 395.869 139.961 394.659 140.797 393.219C141.632 391.778 142.064 390.136 142.064 388.465V266.271V266.3C142.064 264.629 141.603 262.986 140.768 261.546C139.932 260.105 138.751 258.895 137.31 258.059C135.841 257.224 134.199 256.792 132.556 256.792H132.355Z" fill="#D86720"/>
<path fill-rule="evenodd" clip-rule="evenodd" d="M103.052 323.319H69.8027V272.494H136.302V323.319H103.052Z" fill="#D86720"/>
<path d="M104.723 234.779C105.962 214.351 111.148 194.355 119.936 175.972C131.519 151.828 148.979 131.198 170.589 116.215C192.198 101.204 217.178 92.3585 243.052 90.5433C268.897 88.6993 294.742 94.0008 317.936 105.814C341.101 117.656 360.838 135.664 375.157 157.993C389.448 180.323 397.804 206.197 399.389 233.05C400.973 259.874 395.73 286.728 384.147 310.873C372.593 335.017 355.133 355.647 333.523 370.63C311.914 385.612 286.905 394.486 261.06 396.302C258.236 396.503 255.384 396.619 252.56 396.647" stroke="#D86720" stroke-width="52.9134" stroke-linecap="round" stroke-linejoin="round"/>
<path fill-rule="evenodd" clip-rule="evenodd" d="M204.155 256.388L219.829 159.809L312.577 160.27L251.148 250.482L296.067 252.153L221.933 349.136L239.739 266.127L238.442 256.82L204.155 256.388Z" fill="#D86720"/>
<path fill-rule="evenodd" clip-rule="evenodd" d="M204.155 256.388L219.829 159.809L312.577 160.27L251.148 250.482L296.067 252.153L221.933 349.136L239.739 266.127L238.442 256.82L204.155 256.388Z" stroke="#D86720" stroke-width="30.2362" stroke-linejoin="round"/>
</g>
<defs>
<clipPath id="clip0_1_15">
<rect width="378" height="361" fill="white" transform="translate(49 63)"/>
</clipPath>
</defs>
</svg>
