<svg width="21" height="23" viewBox="0 0 21 23" fill="none" xmlns="http://www.w3.org/2000/svg">
<path d="M15.345 11.5261C15.1837 11.3657 14.9654 11.2757 14.7379 11.2757C14.5104 11.2757 14.2922 11.3657 14.1308 11.5261C13.9705 11.6875 13.8804 11.9057 13.8804 12.1332C13.8804 12.3607 13.9705 12.5789 14.1308 12.7403L17.3944 16.0039L1.72222 16.0039L1.72222 1.17556C1.72222 0.947183 1.6315 0.728156 1.47001 0.566667C1.30852 0.405177 1.08949 0.314453 0.861111 0.314453C0.63273 0.314453 0.413703 0.405177 0.252214 0.566667C0.0907241 0.728156 -2.12576e-09 0.947183 -2.89305e-09 1.17556L-5.27113e-08 16.0039C-5.42459e-08 16.4607 0.181448 16.8987 0.504427 17.2217C0.827406 17.5447 1.26546 17.7261 1.72222 17.7261L17.3514 17.7261L14.1308 20.9553C13.9705 21.1166 13.8804 21.3349 13.8804 21.5624C13.8804 21.7899 13.9705 22.0081 14.1308 22.1695C14.2912 22.3285 14.5077 22.4182 14.7336 22.4192C14.8469 22.4198 14.9593 22.3981 15.0642 22.3553C15.1691 22.3124 15.2645 22.2493 15.345 22.1695L20.6667 16.865L15.345 11.5261Z" fill="white"/>
</svg>
